<svg width="182" height="28" viewBox="0 0 182 28" fill="none" xmlns="http://www.w3.org/2000/svg">
<path d="M41.5601 22V3.8H52.3761V7.7H45.4601V10.3H51.1281V14.2H45.4601V22H41.5601Z" fill="white"/>
<path d="M53.5698 9H57.4698V22H53.5698V9ZM55.5458 7.648C54.9825 7.648 54.5102 7.46167 54.1288 7.089C53.7475 6.71633 53.5568 6.25267 53.5568 5.698C53.5568 5.152 53.7475 4.69267 54.1288 4.32C54.5102 3.93867 54.9782 3.748 55.5328 3.748C56.0788 3.748 56.5382 3.93867 56.9108 4.32C57.2922 4.69267 57.4828 5.152 57.4828 5.698C57.4828 6.25267 57.2965 6.71633 56.9238 7.089C56.5598 7.46167 56.1005 7.648 55.5458 7.648Z" fill="white"/>
<path d="M72.6323 13.693V22H68.7323V14.785C68.7323 14.3777 68.6326 14.0093 68.4333 13.68C68.234 13.342 67.9696 13.0777 67.6403 12.887C67.311 12.6877 66.9426 12.588 66.5353 12.588C66.128 12.588 65.7553 12.6877 65.4173 12.887C65.088 13.0777 64.8236 13.342 64.6243 13.68C64.4336 14.0093 64.3383 14.3777 64.3383 14.785V22H60.4383L60.4253 9H64.3253L64.3383 9.819C64.7716 9.44633 65.2656 9.156 65.8203 8.948C66.375 8.74 66.96 8.636 67.5753 8.636C68.5113 8.636 69.3606 8.86567 70.1233 9.325C70.886 9.77567 71.4926 10.3823 71.9433 11.145C72.4026 11.9077 72.6323 12.757 72.6323 13.693Z" fill="white"/>
<path d="M84.3081 9H88.2081V22H84.2951L84.1131 20.83C83.7925 21.2807 83.3851 21.6447 82.8911 21.922C82.4058 22.1993 81.8381 22.338 81.1881 22.338C80.2175 22.338 79.3075 22.156 78.4581 21.792C77.6175 21.428 76.8765 20.9253 76.2351 20.284C75.5938 19.634 75.0911 18.8887 74.7271 18.048C74.3718 17.1987 74.1941 16.2887 74.1941 15.318C74.1941 14.3907 74.3631 13.524 74.7011 12.718C75.0391 11.912 75.5115 11.2057 76.1181 10.599C76.7335 9.98367 77.4398 9.50267 78.2371 9.156C79.0431 8.80933 79.9055 8.636 80.8241 8.636C81.5695 8.636 82.2455 8.792 82.8521 9.104C83.4675 9.40733 84.0135 9.78867 84.4901 10.248L84.3081 9ZM81.0841 18.594C81.6215 18.594 82.1111 18.4553 82.5531 18.178C82.9951 17.9007 83.3461 17.528 83.6061 17.06C83.8661 16.592 83.9961 16.072 83.9961 15.5C83.9961 14.928 83.8661 14.408 83.6061 13.94C83.3461 13.472 82.9951 13.0993 82.5531 12.822C82.1111 12.5447 81.6215 12.406 81.0841 12.406C80.5468 12.406 80.0571 12.5447 79.6151 12.822C79.1818 13.0993 78.8351 13.472 78.5751 13.94C78.3238 14.408 78.1981 14.928 78.1981 15.5C78.1981 16.072 78.3281 16.592 78.5881 17.06C78.8481 17.528 79.1948 17.9007 79.6281 18.178C80.0701 18.4553 80.5555 18.594 81.0841 18.594Z" fill="white"/>
<path d="M103.025 13.693V22H99.1249V14.785C99.1249 14.3777 99.0252 14.0093 98.8259 13.68C98.6265 13.342 98.3622 13.0777 98.0329 12.887C97.7035 12.6877 97.3352 12.588 96.9279 12.588C96.5205 12.588 96.1479 12.6877 95.8099 12.887C95.4805 13.0777 95.2162 13.342 95.0169 13.68C94.8262 14.0093 94.7309 14.3777 94.7309 14.785V22H90.8309L90.8179 9H94.7179L94.7309 9.819C95.1642 9.44633 95.6582 9.156 96.2129 8.948C96.7675 8.74 97.3525 8.636 97.9679 8.636C98.9039 8.636 99.7532 8.86567 100.516 9.325C101.279 9.77567 101.885 10.3823 102.336 11.145C102.795 11.9077 103.025 12.757 103.025 13.693Z" fill="white"/>
<path d="M112.777 17.736L116.287 19.634C115.689 20.4487 114.939 21.103 114.038 21.597C113.136 22.091 112.153 22.338 111.087 22.338C109.891 22.338 108.799 22.0303 107.811 21.415C106.831 20.7997 106.047 19.9763 105.458 18.945C104.877 17.905 104.587 16.7567 104.587 15.5C104.587 14.5467 104.756 13.6583 105.094 12.835C105.432 12.003 105.895 11.275 106.485 10.651C107.083 10.0183 107.776 9.52433 108.565 9.169C109.353 8.81367 110.194 8.636 111.087 8.636C112.153 8.636 113.136 8.883 114.038 9.377C114.939 9.871 115.689 10.534 116.287 11.366L112.777 13.264C112.543 13.03 112.278 12.8523 111.984 12.731C111.698 12.601 111.399 12.536 111.087 12.536C110.593 12.536 110.151 12.6747 109.761 12.952C109.371 13.2293 109.059 13.5933 108.825 14.044C108.599 14.4947 108.487 14.98 108.487 15.5C108.487 16.0113 108.599 16.4923 108.825 16.943C109.059 17.385 109.371 17.7447 109.761 18.022C110.151 18.2993 110.593 18.438 111.087 18.438C111.399 18.438 111.698 18.3773 111.984 18.256C112.278 18.126 112.543 17.9527 112.777 17.736Z" fill="white"/>
<path d="M123.807 22.338C122.611 22.338 121.519 22.0303 120.531 21.415C119.552 20.7997 118.768 19.972 118.178 18.932C117.598 17.892 117.307 16.7437 117.307 15.487C117.307 14.5423 117.476 13.6583 117.814 12.835C118.152 12.003 118.616 11.275 119.205 10.651C119.803 10.0183 120.497 9.52433 121.285 9.169C122.074 8.81367 122.915 8.636 123.807 8.636C124.847 8.636 125.796 8.86567 126.654 9.325C127.521 9.77567 128.249 10.391 128.838 11.171C129.436 11.9423 129.861 12.8133 130.112 13.784C130.364 14.7547 130.39 15.7557 130.19 16.787H121.519C121.641 17.0903 121.801 17.3677 122 17.619C122.208 17.8617 122.46 18.0567 122.754 18.204C123.058 18.3513 123.409 18.4293 123.807 18.438C124.189 18.4467 124.54 18.3643 124.86 18.191C125.19 18.0177 125.476 17.7837 125.718 17.489L129.696 18.412C129.168 19.5647 128.379 20.5093 127.33 21.246C126.282 21.974 125.107 22.338 123.807 22.338ZM121.376 13.927H126.251C126.13 13.5543 125.948 13.225 125.705 12.939C125.463 12.653 125.177 12.4277 124.847 12.263C124.527 12.0983 124.18 12.016 123.807 12.016C123.443 12.016 123.097 12.0983 122.767 12.263C122.447 12.4277 122.165 12.653 121.922 12.939C121.688 13.225 121.506 13.5543 121.376 13.927Z" fill="white"/>
<path d="M143.972 13.953V22H142.152V14.317C142.152 13.6063 141.979 12.9607 141.632 12.38C141.286 11.7993 140.822 11.3357 140.241 10.989C139.661 10.6423 139.015 10.469 138.304 10.469C137.602 10.469 136.957 10.6423 136.367 10.989C135.787 11.3357 135.323 11.7993 134.976 12.38C134.63 12.9607 134.456 13.6063 134.456 14.317V22H132.636V2.5H134.456V10.794C134.916 10.1353 135.514 9.611 136.25 9.221C136.987 8.831 137.789 8.636 138.655 8.636C139.635 8.636 140.527 8.87434 141.333 9.351C142.139 9.82767 142.781 10.469 143.257 11.275C143.734 12.081 143.972 12.9737 143.972 13.953Z" fill="white"/>
<path d="M152.042 22.338C150.846 22.338 149.754 22.0303 148.766 21.415C147.786 20.7997 147.002 19.9763 146.413 18.945C145.832 17.905 145.542 16.7567 145.542 15.5C145.542 14.5467 145.711 13.6583 146.049 12.835C146.387 12.003 146.85 11.275 147.44 10.651C148.038 10.0183 148.731 9.52433 149.52 9.169C150.308 8.81367 151.149 8.636 152.042 8.636C153.004 8.636 153.888 8.82667 154.694 9.208C155.508 9.58933 156.206 10.1223 156.787 10.807C157.376 11.4917 157.818 12.2933 158.113 13.212C158.416 14.1307 158.542 15.123 158.49 16.189H147.466C147.57 17.0123 147.83 17.749 148.246 18.399C148.67 19.049 149.208 19.5647 149.858 19.946C150.516 20.3187 151.244 20.5093 152.042 20.518C152.908 20.518 153.688 20.2927 154.382 19.842C155.084 19.3913 155.647 18.7717 156.072 17.983L157.918 18.412C157.398 19.5647 156.613 20.5093 155.565 21.246C154.516 21.974 153.342 22.338 152.042 22.338ZM147.414 14.72H156.657C156.596 13.914 156.349 13.1773 155.916 12.51C155.491 11.834 154.941 11.2967 154.265 10.898C153.589 10.4907 152.848 10.287 152.042 10.287C151.236 10.287 150.499 10.4863 149.832 10.885C149.164 11.275 148.618 11.808 148.194 12.484C147.769 13.1513 147.509 13.8967 147.414 14.72Z" fill="white"/>
<path d="M160.718 22V9H162.538V10.794C162.998 10.1353 163.596 9.611 164.332 9.221C165.069 8.831 165.871 8.636 166.737 8.636C167.24 8.636 167.725 8.701 168.193 8.831L167.452 10.638C167.088 10.5253 166.733 10.469 166.386 10.469C165.684 10.469 165.039 10.6423 164.449 10.989C163.869 11.3357 163.405 11.7993 163.058 12.38C162.712 12.9607 162.538 13.6063 162.538 14.317V22H160.718Z" fill="white"/>
<path d="M174.868 22.338C173.672 22.338 172.58 22.0303 171.592 21.415C170.613 20.7997 169.828 19.9763 169.239 18.945C168.658 17.905 168.368 16.7567 168.368 15.5C168.368 14.5467 168.537 13.6583 168.875 12.835C169.213 12.003 169.677 11.275 170.266 10.651C170.864 10.0183 171.557 9.52433 172.346 9.169C173.135 8.81367 173.975 8.636 174.868 8.636C175.83 8.636 176.714 8.82667 177.52 9.208C178.335 9.58933 179.032 10.1223 179.613 10.807C180.202 11.4917 180.644 12.2933 180.939 13.212C181.242 14.1307 181.368 15.123 181.316 16.189H170.292C170.396 17.0123 170.656 17.749 171.072 18.399C171.497 19.049 172.034 19.5647 172.684 19.946C173.343 20.3187 174.071 20.5093 174.868 20.518C175.735 20.518 176.515 20.2927 177.208 19.842C177.91 19.3913 178.473 18.7717 178.898 17.983L180.744 18.412C180.224 19.5647 179.44 20.5093 178.391 21.246C177.342 21.974 176.168 22.338 174.868 22.338ZM170.24 14.72H179.483C179.422 13.914 179.175 13.1773 178.742 12.51C178.317 11.834 177.767 11.2967 177.091 10.898C176.415 10.4907 175.674 10.287 174.868 10.287C174.062 10.287 173.325 10.4863 172.658 10.885C171.991 11.275 171.445 11.808 171.02 12.484C170.595 13.1513 170.335 13.8967 170.24 14.72Z" fill="white"/>
<path d="M0 3.81818C0 1.70946 1.70946 0 3.81818 0H8.90909C11.0178 0 12.7273 1.70946 12.7273 3.81818V12.7273H3.81818C1.70946 12.7273 0 11.0178 0 8.90909V3.81818Z" fill="white"/>
<path d="M28 3.81818C28 1.70946 26.2905 0 24.1818 0H19.0909C16.9822 0 15.2727 1.70946 15.2727 3.81818V12.7273H24.1818C26.2905 12.7273 28 11.0178 28 8.90909V3.81818Z" fill="white"/>
<path d="M0 24.1818C0 26.2905 1.70946 28 3.81818 28H8.90909C11.0178 28 12.7273 26.2905 12.7273 24.1818V15.2727H3.81818C1.70946 15.2727 0 16.9822 0 19.0909V24.1818Z" fill="white"/>
</svg>
