<svg width="148" height="26" viewBox="0 0 148 26" fill="none" xmlns="http://www.w3.org/2000/svg">
<path d="M26.7392 20.531C26.5212 20.1841 26.2362 19.884 25.901 19.6485C25.5657 19.4129 25.1868 19.2465 24.7865 19.1591C23.255 18.8029 21.9267 17.8549 21.0919 16.5224C20.2571 15.1898 19.9838 13.581 20.3315 12.0475C20.4652 11.4548 20.4208 10.8358 20.2039 10.2682C19.9869 9.70068 19.6071 9.20988 19.1122 8.8575C18.6172 8.50511 18.0291 8.30685 17.4218 8.28756C16.8145 8.2683 16.2151 8.42888 15.6988 8.74917C15.1825 9.0695 14.7723 9.53519 14.5198 10.0878C14.2673 10.6405 14.1837 11.2554 14.2796 11.8554C14.3754 12.4554 14.6464 13.0137 15.0585 13.4602C15.4706 13.9067 16.0055 14.2214 16.5959 14.3649C17.3597 14.5372 18.082 14.8585 18.7213 15.3105C19.3607 15.7625 19.9046 16.3362 20.3218 16.9988C20.739 17.6614 21.0214 18.3998 21.1526 19.1717C21.284 19.9436 21.2616 20.7338 21.0869 21.4971C20.9835 21.9891 21.0019 22.499 21.1406 22.9822C21.2794 23.4655 21.5343 23.9074 21.883 24.2697C22.2317 24.6319 22.6637 24.9033 23.1413 25.0603C23.619 25.2173 24.1278 25.2551 24.6233 25.1704C25.119 25.0857 25.5863 24.881 25.9847 24.5743C26.3831 24.2676 26.7005 23.8681 26.9091 23.4107C27.1177 22.9532 27.2113 22.4517 27.1817 21.9498C27.1521 21.4478 27.0002 20.9608 26.7392 20.531Z" fill="white"/>
<path d="M7.78332 17.1088C8.32267 17.4031 8.93761 17.5296 9.54931 17.4719C10.161 17.4143 10.7416 17.1753 11.2165 16.7854C11.6914 16.3955 12.0389 15.8727 12.2146 15.284C12.3903 14.6952 12.386 14.0674 12.2024 13.481C11.9696 12.7334 11.8867 11.9472 11.9584 11.1674C12.0301 10.3877 12.2549 9.62974 12.6201 8.9371C12.9853 8.24445 13.4836 7.63068 14.0865 7.13097C14.6893 6.63126 15.3849 6.25551 16.1333 6.02516C16.7137 5.84336 17.2273 5.49392 17.6096 5.02087C17.9919 4.54782 18.2257 3.97225 18.2817 3.3666C18.3376 2.76094 18.2132 2.15227 17.924 1.61722C17.6348 1.08213 17.1938 0.644535 16.6565 0.35951C16.1192 0.0744854 15.5096 -0.0452783 14.9045 0.0153589C14.2993 0.0759583 13.7255 0.314202 13.2554 0.700151C12.7853 1.08606 12.4399 1.60242 12.2625 2.18421C12.0852 2.766 12.084 3.38725 12.2589 3.96976C12.7181 5.47361 12.5628 7.09816 11.8271 8.48779C11.0913 9.87743 9.83501 10.919 8.33313 11.3845C7.74024 11.5565 7.21259 11.9024 6.81852 12.3776C6.42446 12.8528 6.1821 13.4353 6.12286 14.0498C6.06365 14.6643 6.19025 15.2824 6.4863 15.8241C6.78235 16.3658 7.23419 16.8062 7.78332 17.0882V17.1088Z" fill="white"/>
<path d="M15.7171 16.6051C15.3071 16.6195 14.9042 16.7156 14.5319 16.8876C14.1595 17.0597 13.8253 17.3043 13.5486 17.6071C12.4754 18.7551 10.9913 19.4314 9.42085 19.4882C7.85036 19.545 6.32126 18.9777 5.16787 17.9103C4.86985 17.6307 4.51924 17.4131 4.13639 17.2702C3.75358 17.1273 3.34615 17.0619 2.93781 17.0779C2.43519 17.1016 1.94598 17.248 1.51295 17.5042C1.07988 17.7605 0.71617 18.1188 0.453497 18.548C0.190786 18.9771 0.0371547 19.4641 0.00592997 19.9663C-0.025257 20.4685 0.0669072 20.9707 0.274455 21.4291C0.482004 21.8875 0.798555 22.2881 1.19655 22.596C1.59454 22.9039 2.06182 23.1097 2.55764 23.1955C3.05346 23.2812 3.56276 23.2443 4.04102 23.088C4.51932 22.9316 4.95205 22.6606 5.30145 22.2985C5.83299 21.723 6.47281 21.2581 7.1843 20.9303C7.89582 20.6025 8.665 20.4182 9.44781 20.3881C10.2306 20.3581 11.0117 20.4827 11.7462 20.755C12.4808 21.0273 13.1544 21.4418 13.7285 21.9748C14.1023 22.3125 14.5531 22.5535 15.0415 22.6766C15.5299 22.7998 16.0411 22.8015 16.5303 22.6814C17.0195 22.5613 17.4718 22.3232 17.8477 21.9879C18.2236 21.6526 18.5116 21.2303 18.6866 20.7579C18.8615 20.2855 18.918 19.7775 18.8512 19.2782C18.7844 18.779 18.5963 18.3037 18.3032 17.8939C18.0103 17.4842 17.6214 17.1525 17.1705 16.9278C16.7197 16.7031 16.2206 16.5923 15.7171 16.6051Z" fill="white"/>
<path d="M38.912 21H36.824V4.91999H47.6V6.76799H38.912V12.528H46.04V14.376H38.912V21Z" fill="white"/>
<path d="M51.8551 21H49.7671V4.91999H51.8551V21Z" fill="white"/>
<path d="M58.2123 21H56.1243V4.91999H57.9723L65.1483 15.144L66.8043 17.64L66.6843 15.192V4.91999H68.7723V21H66.9003L59.5323 10.536L58.0923 8.39999L58.2123 10.536V21Z" fill="white"/>
<path d="M79.6882 21.24C77.4002 21.24 75.5282 20.448 74.0722 18.864C72.6322 17.28 71.9122 15.304 71.9122 12.936C71.9122 10.584 72.6322 8.62399 74.0722 7.05599C75.5282 5.47199 77.4002 4.67999 79.6882 4.67999C81.9762 4.67999 83.8402 5.47199 85.2802 7.05599C86.7362 8.62399 87.4642 10.584 87.4642 12.936C87.4642 15.304 86.7442 17.28 85.3042 18.864C83.8642 20.448 81.9922 21.24 79.6882 21.24ZM75.5602 17.52C76.5362 18.672 77.9202 19.248 79.7122 19.248C81.5042 19.248 82.8802 18.672 83.8402 17.52C84.8162 16.368 85.3042 14.84 85.3042 12.936C85.3042 11.048 84.8162 9.52799 83.8402 8.37599C82.8802 7.22399 81.5042 6.64799 79.7122 6.64799C77.9202 6.64799 76.5362 7.22399 75.5602 8.37599C74.6002 9.52799 74.1202 11.048 74.1202 12.936C74.1202 14.84 74.6002 16.368 75.5602 17.52Z" fill="white"/>
<path d="M96.664 21.24C95.048 21.24 93.624 20.904 92.392 20.232C91.176 19.56 90.32 18.52 89.824 17.112L91.408 15.72C91.744 16.92 92.416 17.816 93.424 18.408C94.432 18.984 95.512 19.272 96.664 19.272C97.64 19.272 98.432 19.072 99.04 18.672C99.664 18.272 99.976 17.656 99.976 16.824C99.976 15.976 99.696 15.376 99.136 15.024C98.576 14.656 97.672 14.32 96.424 14.016L94.912 13.68C94.288 13.536 93.736 13.376 93.256 13.2C92.792 13.008 92.32 12.752 91.84 12.432C91.376 12.096 91.008 11.656 90.736 11.112C90.48 10.568 90.352 9.93599 90.352 9.21599C90.352 7.80799 90.872 6.70399 91.912 5.90399C92.952 5.10399 94.216 4.70399 95.704 4.70399C97.176 4.70399 98.456 5.02399 99.544 5.66399C100.632 6.28799 101.416 7.19199 101.896 8.37599L100.144 9.76799C99.424 7.71999 97.928 6.69599 95.656 6.69599C94.744 6.69599 94 6.91199 93.424 7.34399C92.848 7.75999 92.56 8.33599 92.56 9.07199C92.56 9.82399 92.808 10.392 93.304 10.776C93.8 11.16 94.56 11.48 95.584 11.736L97.336 12.168C98.024 12.328 98.6 12.504 99.064 12.696C99.544 12.872 100.04 13.136 100.552 13.488C101.064 13.824 101.448 14.272 101.704 14.832C101.976 15.376 102.112 16.024 102.112 16.776C102.112 18.136 101.6 19.224 100.576 20.04C99.568 20.84 98.264 21.24 96.664 21.24Z" fill="white"/>
<path d="M111.075 21.24C108.995 21.24 107.459 20.68 106.467 19.56C105.475 18.424 104.979 16.664 104.979 14.28V4.91999H107.067V14.28C107.067 16.056 107.371 17.328 107.979 18.096C108.603 18.864 109.643 19.248 111.099 19.248C112.571 19.248 113.611 18.872 114.219 18.12C114.843 17.352 115.155 16.072 115.155 14.28V4.91999H117.219V14.28C117.219 16.664 116.723 18.424 115.731 19.56C114.755 20.68 113.203 21.24 111.075 21.24Z" fill="white"/>
<path d="M123.344 21H121.256V4.91999H128.264C129.88 4.91999 131.192 5.35199 132.2 6.21599C133.224 7.07999 133.736 8.29599 133.736 9.86399C133.736 11.112 133.344 12.136 132.56 12.936C131.792 13.736 130.776 14.224 129.512 14.4C130.264 14.64 130.88 15.184 131.36 16.032L134.24 21H131.792L128.96 16.056C128.656 15.528 128.272 15.152 127.808 14.928C127.344 14.704 126.712 14.592 125.912 14.592H123.344V21ZM127.928 6.76799H123.344V12.84H127.928C129 12.84 129.872 12.608 130.544 12.144C131.232 11.68 131.576 10.92 131.576 9.86399C131.576 7.79999 130.36 6.76799 127.928 6.76799Z" fill="white"/>
<path d="M147.418 21H136.426V4.91999H147.418V6.76799H138.514V11.832H145.858V13.68H138.514V19.152H147.418V21Z" fill="white"/>
</svg>
