<svg width="25" height="49" viewBox="0 0 25 49" fill="none" xmlns="http://www.w3.org/2000/svg">
<path d="M0.440439 25.5516L22.7176 47.8288C22.9683 48.0795 23.3084 48.2204 23.663 48.2204C24.0176 48.2204 24.3577 48.0795 24.6084 47.8288C24.8591 47.5781 25 47.238 25 46.8834C25 46.5288 24.8591 46.1887 24.6084 45.938L3.27935 24.6108L24.6066 3.28535C24.793 3.09834 24.9201 2.86043 24.9718 2.60149C25.0235 2.34254 24.9975 2.07409 24.8972 1.82982C24.7969 1.58556 24.6267 1.37636 24.4079 1.22848C24.1892 1.0806 23.9316 1.00063 23.6676 0.998604C23.4922 0.997943 23.3184 1.03267 23.1568 1.10071C22.9951 1.16874 22.8488 1.26869 22.7267 1.39456L0.44953 23.6717C0.199096 23.9199 0.0574461 24.2573 0.0557431 24.6098C0.05404 24.9623 0.192415 25.3011 0.440439 25.5516V25.5516Z" fill="#0082B1"/>
</svg>
