<svg width="25" height="49" viewBox="0 0 25 49" fill="none" xmlns="http://www.w3.org/2000/svg">
<path d="M24.6152 23.6674L2.33805 1.39019C2.08732 1.13946 1.74725 0.998596 1.39266 0.998596C1.03806 0.998596 0.697995 1.13946 0.447261 1.39019C0.196527 1.64093 0.0556641 1.98099 0.0556641 2.33559C0.055664 2.69018 0.196527 3.03025 0.447261 3.28098L21.7763 24.6082L0.449076 45.9336C0.262653 46.1207 0.135612 46.3586 0.0839055 46.6175C0.0321992 46.8765 0.0581248 47.1449 0.158431 47.3892C0.258737 47.6334 0.428956 47.8426 0.647723 47.9905C0.866489 48.1384 1.12406 48.2184 1.38811 48.2204C1.5635 48.2211 1.73722 48.1863 1.89888 48.1183C2.06054 48.0503 2.20682 47.9503 2.32896 47.8244L24.6061 25.5473C24.8566 25.2991 24.9982 24.9617 24.9999 24.6092C25.0016 24.2567 24.8632 23.9179 24.6152 23.6674V23.6674Z" fill="#0082B1"/>
</svg>
